<svg xmlns="http://www.w3.org/2000/svg" width="1200" height="675" viewBox="0 0 1200 675" fill="none">
  <!-- Background -->
  <rect width="1200" height="675" fill="#141414"/>

  <!-- Subtle grain texture via noise pattern -->
  <filter id="noise">
    <feTurbulence type="fractalNoise" baseFrequency="0.65" numOctaves="3" stitchTiles="stitch"/>
    <feColorMatrix type="saturate" values="0"/>
    <feBlend in="SourceGraphic" mode="overlay" result="blend"/>
    <feComposite in="blend" in2="SourceGraphic" operator="in"/>
  </filter>
  <rect width="1200" height="675" fill="white" opacity="0.025" filter="url(#noise)"/>

  <!-- Film strip top -->
  <rect x="0" y="0" width="1200" height="60" fill="#0f0f0f"/>
  <rect x="0" y="56" width="1200" height="4" fill="#1e1e1e"/>
  <!-- Film perforations top -->
  <rect x="20" y="10" width="36" height="40" rx="4" fill="#1a1a1a" stroke="#2a2a2a" stroke-width="1"/>
  <rect x="76" y="10" width="36" height="40" rx="4" fill="#1a1a1a" stroke="#2a2a2a" stroke-width="1"/>
  <rect x="132" y="10" width="36" height="40" rx="4" fill="#1a1a1a" stroke="#2a2a2a" stroke-width="1"/>
  <rect x="188" y="10" width="36" height="40" rx="4" fill="#1a1a1a" stroke="#2a2a2a" stroke-width="1"/>
  <rect x="244" y="10" width="36" height="40" rx="4" fill="#1a1a1a" stroke="#2a2a2a" stroke-width="1"/>
  <rect x="300" y="10" width="36" height="40" rx="4" fill="#1a1a1a" stroke="#2a2a2a" stroke-width="1"/>
  <rect x="356" y="10" width="36" height="40" rx="4" fill="#1a1a1a" stroke="#2a2a2a" stroke-width="1"/>
  <rect x="412" y="10" width="36" height="40" rx="4" fill="#1a1a1a" stroke="#2a2a2a" stroke-width="1"/>
  <rect x="468" y="10" width="36" height="40" rx="4" fill="#1a1a1a" stroke="#2a2a2a" stroke-width="1"/>
  <rect x="524" y="10" width="36" height="40" rx="4" fill="#1a1a1a" stroke="#2a2a2a" stroke-width="1"/>
  <rect x="580" y="10" width="36" height="40" rx="4" fill="#1a1a1a" stroke="#2a2a2a" stroke-width="1"/>
  <rect x="636" y="10" width="36" height="40" rx="4" fill="#1a1a1a" stroke="#2a2a2a" stroke-width="1"/>
  <rect x="692" y="10" width="36" height="40" rx="4" fill="#1a1a1a" stroke="#2a2a2a" stroke-width="1"/>
  <rect x="748" y="10" width="36" height="40" rx="4" fill="#1a1a1a" stroke="#2a2a2a" stroke-width="1"/>
  <rect x="804" y="10" width="36" height="40" rx="4" fill="#1a1a1a" stroke="#2a2a2a" stroke-width="1"/>
  <rect x="860" y="10" width="36" height="40" rx="4" fill="#1a1a1a" stroke="#2a2a2a" stroke-width="1"/>
  <rect x="916" y="10" width="36" height="40" rx="4" fill="#1a1a1a" stroke="#2a2a2a" stroke-width="1"/>
  <rect x="972" y="10" width="36" height="40" rx="4" fill="#1a1a1a" stroke="#2a2a2a" stroke-width="1"/>
  <rect x="1028" y="10" width="36" height="40" rx="4" fill="#1a1a1a" stroke="#2a2a2a" stroke-width="1"/>
  <rect x="1084" y="10" width="36" height="40" rx="4" fill="#1a1a1a" stroke="#2a2a2a" stroke-width="1"/>
  <rect x="1140" y="10" width="36" height="40" rx="4" fill="#1a1a1a" stroke="#2a2a2a" stroke-width="1"/>

  <!-- Film strip bottom -->
  <rect x="0" y="615" width="1200" height="60" fill="#0f0f0f"/>
  <rect x="0" y="615" width="1200" height="4" fill="#1e1e1e"/>
  <!-- Film perforations bottom -->
  <rect x="20" y="625" width="36" height="40" rx="4" fill="#1a1a1a" stroke="#2a2a2a" stroke-width="1"/>
  <rect x="76" y="625" width="36" height="40" rx="4" fill="#1a1a1a" stroke="#2a2a2a" stroke-width="1"/>
  <rect x="132" y="625" width="36" height="40" rx="4" fill="#1a1a1a" stroke="#2a2a2a" stroke-width="1"/>
  <rect x="188" y="625" width="36" height="40" rx="4" fill="#1a1a1a" stroke="#2a2a2a" stroke-width="1"/>
  <rect x="244" y="625" width="36" height="40" rx="4" fill="#1a1a1a" stroke="#2a2a2a" stroke-width="1"/>
  <rect x="300" y="625" width="36" height="40" rx="4" fill="#1a1a1a" stroke="#2a2a2a" stroke-width="1"/>
  <rect x="356" y="625" width="36" height="40" rx="4" fill="#1a1a1a" stroke="#2a2a2a" stroke-width="1"/>
  <rect x="412" y="625" width="36" height="40" rx="4" fill="#1a1a1a" stroke="#2a2a2a" stroke-width="1"/>
  <rect x="468" y="625" width="36" height="40" rx="4" fill="#1a1a1a" stroke="#2a2a2a" stroke-width="1"/>
  <rect x="524" y="625" width="36" height="40" rx="4" fill="#1a1a1a" stroke="#2a2a2a" stroke-width="1"/>
  <rect x="580" y="625" width="36" height="40" rx="4" fill="#1a1a1a" stroke="#2a2a2a" stroke-width="1"/>
  <rect x="636" y="625" width="36" height="40" rx="4" fill="#1a1a1a" stroke="#2a2a2a" stroke-width="1"/>
  <rect x="692" y="625" width="36" height="40" rx="4" fill="#1a1a1a" stroke="#2a2a2a" stroke-width="1"/>
  <rect x="748" y="625" width="36" height="40" rx="4" fill="#1a1a1a" stroke="#2a2a2a" stroke-width="1"/>
  <rect x="804" y="625" width="36" height="40" rx="4" fill="#1a1a1a" stroke="#2a2a2a" stroke-width="1"/>
  <rect x="860" y="625" width="36" height="40" rx="4" fill="#1a1a1a" stroke="#2a2a2a" stroke-width="1"/>
  <rect x="916" y="625" width="36" height="40" rx="4" fill="#1a1a1a" stroke="#2a2a2a" stroke-width="1"/>
  <rect x="972" y="625" width="36" height="40" rx="4" fill="#1a1a1a" stroke="#2a2a2a" stroke-width="1"/>
  <rect x="1028" y="625" width="36" height="40" rx="4" fill="#1a1a1a" stroke="#2a2a2a" stroke-width="1"/>
  <rect x="1084" y="625" width="36" height="40" rx="4" fill="#1a1a1a" stroke="#2a2a2a" stroke-width="1"/>
  <rect x="1140" y="625" width="36" height="40" rx="4" fill="#1a1a1a" stroke="#2a2a2a" stroke-width="1"/>

  <!-- Center accent glow -->
  <radialGradient id="glow" cx="50%" cy="50%" r="40%">
    <stop offset="0%" stop-color="#e8ff4d" stop-opacity="0.07"/>
    <stop offset="100%" stop-color="#e8ff4d" stop-opacity="0"/>
  </radialGradient>
  <rect x="200" y="80" width="800" height="515" fill="url(#glow)"/>

  <!-- Play button icon -->
  <circle cx="600" cy="290" r="52" fill="none" stroke="#e8ff4d" stroke-width="1.5" opacity="0.6"/>
  <polygon points="587,268 587,312 629,290" fill="#e8ff4d" opacity="0.8"/>

  <!-- Project label -->
  <text x="600" y="390" font-family="'Cabinet Grotesk', 'Inter', sans-serif" font-weight="900" font-size="48" fill="#f0ede8" text-anchor="middle" letter-spacing="-1.5">ReelHouse Cinemas</text>

  <!-- Subtitle -->
  <text x="600" y="430" font-family="'Geist', 'Inter', sans-serif" font-weight="400" font-size="16" fill="#5c5852" text-anchor="middle" letter-spacing="0.5">UX Case Study — Cinema Booking Experience</text>

  <!-- Accent line -->
  <rect x="548" y="454" width="104" height="2" rx="1" fill="#e8ff4d" opacity="0.5"/>
</svg>
